<svg width="24" height="23" viewBox="0 0 24 23" fill="none" xmlns="http://www.w3.org/2000/svg">
<path d="M17 1.84616H7C4.23858 1.84616 2 3.91254 2 6.46155V15.6923C2 18.2413 4.23858 20.3077 7 20.3077H17C19.7614 20.3077 22 18.2413 22 15.6923V6.46155C22 3.91254 19.7614 1.84616 17 1.84616Z" stroke="#242424" stroke-linecap="round" stroke-linejoin="round"/>
<path d="M16.0002 10.4954C16.1236 11.2636 15.9815 12.0482 15.594 12.7376C15.2065 13.4269 14.5933 13.9859 13.8418 14.3351C13.0903 14.6843 12.2386 14.8058 11.408 14.6824C10.5773 14.559 9.80996 14.197 9.21503 13.6478C8.62011 13.0987 8.22793 12.3904 8.09426 11.6236C7.9606 10.8568 8.09226 10.0707 8.47052 9.37697C8.84878 8.68326 9.45438 8.11731 10.2012 7.75961C10.948 7.40192 11.7979 7.2707 12.6302 7.38462C13.4791 7.50082 14.265 7.86597 14.8719 8.42614C15.4787 8.9863 15.8743 9.71177 16.0002 10.4954Z" stroke="#242424" stroke-linecap="round" stroke-linejoin="round"/>
<path d="M17.5 6H17.51" stroke="#242424" stroke-linecap="round" stroke-linejoin="round"/>
</svg>
